<?xml version="1.0" standalone="no"?>
<!DOCTYPE svg PUBLIC "-//W3C//DTD SVG 20010904//EN"
 "http://www.w3.org/TR/2001/REC-SVG-20010904/DTD/svg10.dtd">
<svg version="1.0" xmlns="http://www.w3.org/2000/svg"
 width="520.000000pt" height="520.000000pt" viewBox="0 0 520.000000 520.000000"
 preserveAspectRatio="xMidYMid meet">
<metadata>
Created by potrace 1.11, written by Peter Selinger 2001-2013
</metadata>
<g transform="translate(0.000000,520.000000) scale(0.100000,-0.100000)"
fill="#000000" stroke="none">
<path d="M3315 3494 l-66 -84 -836 0 c-760 0 -835 -1 -829 -16 3 -9 9 -27 12
-40 l6 -24 992 0 c881 0 994 2 1014 16 12 8 22 19 22 23 0 8 -89 84 -199 171
l-49 39 -67 -85z"/>
<path d="M3081 2680 l-63 -80 -628 0 -628 0 10 -40 10 -40 784 0 c771 0 784 0
804 20 l20 20 -37 33 c-44 39 -203 167 -206 167 -1 -1 -31 -37 -66 -80z"/>
<path d="M3433 1786 l-68 -85 -964 0 c-877 -1 -963 -2 -957 -17 3 -9 9 -27 12
-40 l6 -24 1128 0 c1114 0 1128 0 1151 20 l24 20 -30 26 c-53 46 -226 184
-230 184 -2 0 -35 -38 -72 -84z"/>
</g>
</svg>
